<svg version="1.1" xmlns="http://www.w3.org/2000/svg" xmlns:xlink="http://www.w3.org/1999/xlink" width="512.000000pt" height="512.000000pt" viewBox="0,0,256,256"><g fill="#ffc107" fill-rule="nonzero" stroke="none" stroke-width="1" stroke-linecap="butt" stroke-linejoin="miter" stroke-miterlimit="10" stroke-dasharray="" stroke-dashoffset="0" font-family="none" font-weight="none" font-size="none" text-anchor="none" style="mix-blend-mode: normal"><g transform="translate(0,-0.03359) scale(0.5,0.5)"><g transform="translate(0,512) scale(0.1,-0.1)"><path d="M2475,5092c-126,-71 -2403,-1478 -2428,-1500c-52,-49 -60,-140 -16,-196c47,-60 -147,-56 2529,-56c2676,0 2482,-4 2529,56c44,56 36,146 -16,196c-27,25 -2364,1468 -2443,1508c-53,27 -96,25 -155,-8zM2730,4217c101,-53 107,-190 11,-254c-31,-21 -45,-23 -180,-23c-128,0 -150,3 -179,20c-99,61 -95,203 8,257c38,20 57,23 170,23c113,0 132,-3 170,-23z"></path><path d="M362,2931c3,-105 4,-111 32,-140c15,-16 40,-34 55,-40c18,-8 635,-10 2128,-9l2103,3l37,38l38,37l3,110l4,110h-2202h-2202z"></path><path d="M560,1720v-720h300h300l-2,718l-3,717l-297,3l-298,2z"></path><path d="M1690,1720v-720h300h300v720v720h-300h-300z"></path><path d="M2830,1720v-720h300h300v720v720h-300h-300z"></path><path d="M3967,2433c-4,-3 -7,-327 -7,-720v-713h300h300v720v720h-293c-162,0 -297,-3 -300,-7z"></path><path d="M76,676c-71,-43 -75,-60 -76,-324c0,-266 5,-289 78,-330l40,-22h2441c2428,0 2442,0 2481,20c26,13 47,34 60,60c18,36 20,58 20,270c0,212 -2,234 -20,270c-13,26 -34,47 -60,60c-39,20 -53,20 -2482,20h-2443z"></path></g></g></g></svg>