<svg version="1.1" xmlns="http://www.w3.org/2000/svg" xmlns:xlink="http://www.w3.org/1999/xlink" width="512.000000pt" height="512.000000pt" viewBox="0,0,256,256"><g fill="#ffc107" fill-rule="nonzero" stroke="none" stroke-width="1" stroke-linecap="butt" stroke-linejoin="miter" stroke-miterlimit="10" stroke-dasharray="" stroke-dashoffset="0" font-family="none" font-weight="none" font-size="none" text-anchor="none" style="mix-blend-mode: normal"><g transform="translate(-0.00672,-0.17445) scale(0.5,0.5)"><g transform="translate(0,512) scale(0.1,-0.1)"><path d="M2460,4689c-123,-10 -250,-47 -375,-109c-650,-322 -795,-1182 -286,-1699c157,-160 358,-267 574,-306l72,-13l-107,-1c-484,-4 -958,-199 -1311,-540c-271,-262 -444,-553 -536,-902c-60,-227 -82,-507 -46,-582c24,-52 79,-94 137,-107c71,-15 3888,-14 3959,1c40,9 62,21 94,54c56,55 64,94 54,261c-38,635 -400,1223 -956,1550c-283,167 -622,261 -948,265l-110,1l72,13c199,36 390,132 547,276c123,112 249,320 295,489c117,421 -37,874 -388,1141c-137,104 -362,193 -518,205c-37,3 -81,6 -98,7c-16,2 -73,0 -125,-4z"></path></g></g></g></svg>