<svg version="1.1" xmlns="http://www.w3.org/2000/svg" xmlns:xlink="http://www.w3.org/1999/xlink" width="512.000000pt" height="512.000000pt" viewBox="0,0,256,256"><g fill="#ffc107" fill-rule="nonzero" stroke="none" stroke-width="1" stroke-linecap="butt" stroke-linejoin="miter" stroke-miterlimit="10" stroke-dasharray="" stroke-dashoffset="0" font-family="none" font-weight="none" font-size="none" text-anchor="none" style="mix-blend-mode: normal"><g transform="translate(-0.00664,-0.08727) scale(0.5,0.5)"><g transform="translate(0,512) scale(0.1,-0.1)"><path d="M2464,4640c-49,-10 -2379,-1173 -2412,-1203c-71,-66 -67,-152 10,-210c53,-40 2289,-1408 2338,-1431c37,-17 64,-21 160,-21c96,0 123,4 160,21c49,23 2285,1391 2338,1431c80,60 81,151 4,214c-16,13 -559,289 -1208,612l-1179,588l-85,4c-47,2 -103,0 -126,-5z"></path><path d="M4857,2708c-31,-17 -74,-46 -95,-63l-37,-33l-3,-739l-2,-740l-51,-43c-129,-109 -133,-296 -8,-403c43,-37 118,-67 169,-67c56,0 132,31 177,73c59,54 86,113 85,191c0,94 -34,161 -112,218l-40,30v793c0,628 -3,795 -13,803c-9,8 -28,2 -70,-20z"></path><path d="M3660,2044c-426,-262 -797,-487 -825,-500c-159,-74 -380,-76 -541,-5c-23,11 -385,229 -804,486c-418,257 -770,469 -780,472c-34,9 -69,-6 -85,-37c-13,-25 -15,-101 -15,-523c0,-285 4,-517 10,-548c14,-79 81,-204 149,-283c371,-425 1225,-689 2027,-626c509,40 957,179 1290,399c229,152 383,342 414,510c13,71 13,1071 0,1105c-7,19 -17,26 -37,26c-19,0 -276,-153 -803,-476z"></path></g></g></g></svg>