<svg version="1.1" xmlns="http://www.w3.org/2000/svg" xmlns:xlink="http://www.w3.org/1999/xlink" width="512.000000pt" height="512.000000pt" viewBox="0,0,256,256"><g fill="#ffc107" fill-rule="nonzero" stroke="none" stroke-width="1" stroke-linecap="butt" stroke-linejoin="miter" stroke-miterlimit="10" stroke-dasharray="" stroke-dashoffset="0" font-family="none" font-weight="none" font-size="none" text-anchor="none" style="mix-blend-mode: normal"><g transform="translate(0.034,-0.025) scale(0.5,0.5)"><g transform="translate(0,512) scale(0.1,-0.1)"><path d="M2806,5098c-15,-13 -59,-95 -101,-187c-41,-91 -76,-166 -78,-167c-1,-2 -85,-12 -187,-24c-193,-22 -224,-32 -240,-76c-16,-42 9,-76 153,-209c106,-98 136,-131 132,-145c-3,-11 -21,-95 -39,-187c-35,-177 -34,-212 4,-233c40,-21 77,-8 238,81c139,78 167,90 186,81c12,-5 86,-46 165,-91c156,-89 192,-98 229,-58c29,31 28,53 -13,255l-34,171l57,54c31,29 91,84 132,122c95,88 102,97 98,142c-5,60 -28,69 -238,93c-101,11 -187,24 -191,28c-4,4 -39,79 -78,167c-73,163 -103,205 -146,205c-13,0 -35,-10 -49,-22z"></path><path d="M1691,4733c-12,-10 -55,-92 -97,-183c-41,-91 -78,-168 -82,-172c-4,-4 -90,-16 -192,-28c-114,-13 -193,-26 -207,-35c-26,-17 -38,-54 -29,-89c3,-13 68,-80 146,-151c77,-70 140,-133 140,-140c0,-6 -16,-90 -35,-185c-19,-95 -35,-182 -35,-192c0,-30 45,-68 80,-68c19,0 85,31 189,90c87,50 165,90 171,90c7,0 84,-40 172,-90c103,-59 169,-90 189,-90c34,0 79,38 79,67c0,10 -17,101 -37,202l-36,184l99,91c180,165 194,180 194,215c0,48 -36,78 -101,86c-30,3 -117,14 -194,23l-139,17l-78,170c-43,94 -88,178 -99,188c-12,9 -34,17 -49,17c-15,0 -37,-8 -49,-17z"></path><path d="M3917,4728c-13,-13 -57,-95 -97,-183c-39,-88 -75,-163 -78,-167c-4,-4 -90,-16 -192,-28c-194,-22 -225,-31 -236,-75c-12,-48 6,-73 146,-201c77,-70 140,-131 140,-136c0,-5 -16,-86 -35,-179c-19,-94 -35,-181 -35,-195c0,-34 42,-74 78,-74c19,0 89,33 190,90c88,50 165,90 172,90c7,0 83,-40 171,-90c87,-50 170,-90 184,-90c37,0 60,15 74,48c10,24 6,55 -23,201c-20,95 -36,181 -36,191c0,11 57,70 140,146c77,70 142,135 146,146c9,30 -6,77 -30,93c-12,8 -97,23 -206,36c-102,11 -190,26 -196,32c-6,7 -44,85 -84,175c-41,90 -83,170 -94,178c-30,21 -72,17 -99,-8z"></path><path d="M2680,3453c0,-492 -108,-900 -323,-1218c-122,-180 -375,-397 -541,-465l-56,-22l2,-810l3,-810l185,-65l185,-64l943,10c911,10 945,11 975,30c110,68 165,207 137,341c-19,88 -10,106 63,140c79,36 113,63 136,108c36,73 34,179 -6,309c-21,66 -11,92 49,129c105,65 142,125 143,229c0,58 -5,78 -27,115c-14,25 -38,56 -52,69c-43,40 -35,76 37,183c95,141 116,223 76,306c-55,113 -299,212 -526,212c-130,0 -484,-16 -768,-34c-164,-11 -206,-11 -232,0c-38,15 -49,45 -39,107c30,201 37,266 46,434c12,231 -1,590 -25,670c-20,67 -89,144 -158,176c-49,23 -104,38 -189,52l-38,6z"></path><path d="M490,935v-925h550h550v925v925h-550h-550zM854,1798c97,-29 161,-143 136,-239c-50,-189 -301,-211 -381,-34c-47,103 8,231 117,270c49,18 76,18 128,3z"></path><path d="M764,1626c-11,-29 1,-51 28,-54c22,-3 29,2 34,22c3,14 3,30 -1,35c-9,16 -55,13 -61,-3z"></path></g></g></g></svg>