<svg version="1.1" xmlns="http://www.w3.org/2000/svg" xmlns:xlink="http://www.w3.org/1999/xlink" width="512.000000pt" height="512.000000pt" viewBox="0,0,256,256"><g fill="#ffc107" fill-rule="nonzero" stroke="none" stroke-width="1" stroke-linecap="butt" stroke-linejoin="miter" stroke-miterlimit="10" stroke-dasharray="" stroke-dashoffset="0" font-family="none" font-weight="none" font-size="none" text-anchor="none" style="mix-blend-mode: normal"><g transform="translate(-0.02427,-0.2462) scale(0.5,0.5)"><g transform="translate(0,512) scale(0.1,-0.1)"><path d="M1285,4890c-160,-32 -304,-142 -374,-285c-59,-121 -56,-54 -56,-1415v-1255l22,-70c57,-180 218,-328 397,-365c35,-7 581,-9 1741,-8l1690,3l60,22c124,47 230,140 290,254c68,129 65,63 65,1421c0,852 -3,1243 -11,1280c-30,147 -147,301 -277,367c-127,64 -22,61 -1847,60c-913,-1 -1678,-5 -1700,-9zM4661,4441l29,-29v-778c0,-429 -4,-774 -9,-768c-4,5 -156,182 -338,394c-181,212 -346,400 -366,417c-137,120 -346,121 -482,2c-21,-19 -218,-249 -438,-513l-399,-478l-36,33c-21,19 -91,86 -157,151c-154,151 -198,173 -335,173c-157,-1 -159,-3 -532,-374l-318,-315v1018c0,933 1,1020 17,1046c9,16 26,33 37,39c14,6 579,10 1659,10l1639,1z"></path><path d="M1813,4245c-81,-22 -132,-52 -193,-114c-164,-164 -168,-418 -9,-586c87,-92 185,-135 309,-135c123,0 222,43 308,133c62,66 89,119 108,210c63,302 -224,572 -523,492z"></path><path d="M266,2530c-186,-621 -260,-883 -264,-930c-13,-184 96,-374 262,-455c54,-26 456,-137 1701,-470c897,-240 1655,-443 1685,-451c63,-16 176,-18 240,-3c118,27 247,124 303,227c15,27 72,193 127,368c55,175 103,327 106,337c5,16 -75,17 -1593,17c-1556,0 -1600,1 -1680,20c-293,70 -510,285 -596,589c-21,74 -21,99 -27,846l-5,769z"></path></g></g></g></svg>